<?xml version="1.0" standalone="no"?>
<!DOCTYPE svg PUBLIC "-//W3C//DTD SVG 20010904//EN"
 "http://www.w3.org/TR/2001/REC-SVG-20010904/DTD/svg10.dtd">
<svg version="1.0" xmlns="http://www.w3.org/2000/svg"
 width="2121.000000pt" height="1414.000000pt" viewBox="0 0 2121.000000 1414.000000"
 preserveAspectRatio="xMidYMid meet">

<g transform="translate(0.000000,1414.000000) scale(0.100000,-0.100000)"
fill="#000000" stroke="none">
<path d="M7680 11314 c-14 -2 -59 -9 -100 -15 -128 -18 -182 -30 -280 -61
-447 -140 -816 -403 -1099 -783 -64 -87 -130 -184 -144 -215 -4 -8 -21 -37
-37 -65 -124 -212 -249 -571 -264 -756 -3 -41 -12 -91 -20 -110 -22 -53 -35
-211 -41 -489 -3 -140 -7 -343 -10 -450 -3 -107 -8 -391 -11 -630 -3 -239 -8
-444 -10 -455 -9 -44 -4 -646 5 -740 25 -243 87 -497 171 -700 23 -55 49 -118
57 -139 57 -138 233 -412 343 -536 368 -412 773 -641 1275 -719 89 -14 185
-20 445 -26 129 -3 325 -7 435 -10 110 -3 328 -7 485 -10 278 -5 501 -10 980
-20 129 -3 341 -7 470 -10 129 -3 336 -7 460 -10 124 -3 344 -7 490 -10 146
-3 355 -7 465 -10 110 -3 344 -8 519 -11 l319 -7 51 -30 c28 -17 89 -54 136
-83 47 -28 112 -67 145 -87 33 -20 100 -60 148 -89 49 -29 96 -57 105 -63 18
-10 170 -102 630 -382 147 -89 296 -179 332 -201 110 -66 685 -416 788 -480
71 -44 80 -42 63 10 -6 18 -36 137 -66 263 -31 127 -60 239 -65 250 -5 11 -25
79 -44 150 -67 254 -166 592 -248 850 -33 105 -68 217 -78 250 -10 33 -33 106
-50 162 l-33 101 83 91 c180 197 354 488 458 771 88 238 133 439 153 685 10
116 12 151 9 205 0 8 2 44 4 80 3 36 7 223 10 415 12 693 16 923 21 1117 18
708 -4 963 -115 1309 -48 148 -81 230 -140 349 -70 141 -127 239 -182 315
-122 167 -139 187 -293 339 -116 115 -225 203 -262 212 -13 4 -23 10 -23 15 0
20 -295 189 -329 189 -4 0 -22 7 -39 15 -95 48 -390 129 -482 133 -8 1 -62 5
-120 11 -58 5 -280 13 -495 16 -214 3 -457 8 -540 10 -82 2 -251 7 -375 10
-124 3 -313 7 -420 10 -107 3 -310 7 -450 10 -140 3 -345 7 -455 10 -110 3
-348 7 -530 10 -181 3 -391 8 -465 10 -74 2 -308 7 -520 10 -212 3 -396 8
-410 10 -36 6 -780 14 -810 9z m795 -278 c176 -3 410 -8 520 -11 110 -3 346
-7 525 -10 179 -3 415 -7 525 -10 110 -3 319 -7 465 -10 585 -11 794 -16 990
-20 113 -3 311 -7 440 -10 129 -2 327 -7 440 -10 113 -3 324 -7 470 -10 335
-7 403 -14 585 -62 302 -78 568 -235 803 -472 363 -366 572 -828 623 -1377 11
-121 9 -548 -6 -1209 -2 -110 -7 -330 -10 -490 -7 -414 -16 -733 -21 -785 -21
-226 -22 -233 -75 -445 -86 -343 -288 -699 -552 -971 -56 -58 -104 -107 -106
-109 -4 -4 15 -66 113 -375 29 -91 64 -203 79 -250 14 -47 44 -146 67 -220 23
-74 48 -158 55 -187 7 -28 22 -80 33 -115 65 -205 116 -397 108 -405 -7 -7
-91 43 -906 537 -184 112 -366 222 -405 245 -38 23 -100 61 -137 84 -37 22
-70 41 -72 41 -3 0 -25 14 -50 31 -25 16 -106 65 -180 109 l-135 78 -263 6
c-264 6 -518 12 -963 21 -132 3 -460 10 -730 15 -738 14 -992 20 -1185 25 -96
3 -317 7 -490 10 -857 15 -1421 32 -1452 44 -14 5 -28 8 -30 6 -6 -6 -137 21
-223 46 -474 138 -895 498 -1142 979 -69 133 -151 345 -174 448 -79 355 -81
394 -66 1362 4 283 9 580 12 660 3 80 7 291 10 470 6 321 11 453 21 498 3 13
0 30 -7 38 -9 11 -9 14 0 14 7 0 10 4 6 10 -3 5 1 25 10 45 8 20 17 58 21 83
14 114 75 310 145 469 77 176 126 261 257 445 37 52 121 147 202 228 216 217
483 376 775 462 79 23 145 35 315 57 58 8 245 7 765 -3z"/>
<path d="M10155 9234 c-214 -38 -359 -108 -486 -234 -98 -97 -149 -186 -174
-305 -49 -235 33 -428 214 -496 73 -27 195 -23 257 9 61 31 120 103 134 163
18 76 6 123 -58 224 -52 82 -57 96 -60 155 -3 57 0 70 23 105 52 79 136 117
261 118 72 1 89 -3 147 -31 100 -49 153 -124 188 -262 19 -73 21 -103 16 -244
-7 -236 -45 -347 -197 -581 -89 -137 -125 -206 -162 -315 -51 -152 -77 -375
-63 -544 l7 -87 136 3 136 3 -3 65 c-5 150 34 331 98 458 66 128 114 184 405
472 256 252 321 377 319 610 -1 195 -62 339 -198 475 -128 127 -291 205 -505
240 -117 18 -327 18 -435 -1z"/>
<path d="M10236 6744 c-71 -22 -166 -119 -189 -193 -49 -154 16 -307 161 -378
74 -36 181 -39 253 -6 63 28 125 87 157 147 23 44 27 63 27 136 0 97 -19 146
-84 213 -79 84 -212 117 -325 81z"/>
<path d="M5035 9611 c-2 -5 6 -11 20 -13 15 -3 25 -1 25 6 0 14 -37 19 -45 7z"/>
<path d="M4965 9570 c3 -5 8 -10 11 -10 2 0 4 5 4 10 0 6 -5 10 -11 10 -5 0
-7 -4 -4 -10z"/>
<path d="M5050 9571 c0 -6 5 -13 10 -16 6 -3 10 1 10 9 0 9 -4 16 -10 16 -5 0
-10 -4 -10 -9z"/>
<path d="M5015 9560 c3 -5 10 -10 16 -10 5 0 9 5 9 10 0 6 -7 10 -16 10 -8 0
-12 -4 -9 -10z"/>
<path d="M4998 9503 c-10 -2 -18 -8 -18 -13 0 -5 -7 -7 -16 -3 -14 5 -14 3 -2
-16 11 -18 11 -23 0 -30 -21 -13 -16 -25 15 -38 26 -11 27 -12 4 -13 -16 0
-21 -4 -17 -15 3 -8 1 -15 -3 -15 -5 0 -16 -3 -25 -6 -11 -4 -16 -1 -16 10 0
17 -26 21 -48 8 -9 -6 -6 -12 12 -20 28 -13 28 -36 0 -57 -11 -8 -14 -15 -6
-15 6 0 12 -9 12 -21 0 -17 -4 -20 -24 -15 -19 5 -25 2 -25 -11 -2 -46 -6 -61
-14 -56 -5 3 -6 -5 -2 -18 6 -20 5 -22 -6 -11 -7 6 -17 12 -21 12 -13 0 -9
-38 5 -43 10 -4 10 -6 0 -6 -18 -1 -16 -21 4 -43 9 -10 13 -21 9 -26 -4 -4
-14 2 -22 12 -8 11 -14 14 -14 8 0 -7 -5 -12 -11 -12 -5 0 -7 5 -4 10 3 6 1
10 -4 10 -6 0 -11 -9 -11 -20 0 -11 -6 -20 -12 -20 -9 -1 -8 -4 2 -13 8 -7 14
-23 12 -36 -2 -13 1 -28 7 -34 16 -16 14 -27 -5 -27 -10 0 -13 -6 -9 -19 3
-10 -1 -23 -9 -30 -8 -7 -12 -19 -10 -26 4 -10 -1 -12 -18 -8 -21 6 -22 5 -9
-10 12 -15 11 -17 -10 -17 -22 -1 -23 -2 -6 -14 9 -7 17 -18 17 -25 0 -6 6
-11 13 -12 6 0 0 -5 -15 -11 -25 -8 -27 -14 -24 -49 2 -21 0 -39 -5 -39 -5 0
-9 -4 -9 -10 0 -5 10 -10 22 -10 12 0 18 -3 14 -7 -4 -5 -18 -8 -29 -8 -15 0
-22 -6 -23 -21 -1 -12 -4 -26 -8 -33 -4 -6 -3 -11 3 -11 5 0 11 5 13 11 2 5
11 7 21 4 9 -4 14 -11 11 -17 -3 -5 -12 -7 -18 -5 -17 7 -39 -8 -42 -27 -2
-12 6 -16 27 -16 34 0 30 -20 -4 -21 -19 0 -20 -1 -4 -8 17 -6 16 -9 -6 -33
-14 -15 -28 -24 -31 -21 -3 4 -6 -1 -6 -10 0 -10 6 -17 13 -17 7 0 13 -9 13
-20 0 -11 -5 -20 -10 -20 -5 0 -2 -8 7 -17 17 -20 3 -42 -23 -36 -8 2 0 -4 18
-15 18 -10 30 -21 26 -25 -4 -4 -13 -2 -21 5 -11 9 -12 7 -7 -7 4 -10 3 -16
-2 -13 -5 3 -16 -1 -24 -10 -13 -14 -12 -15 2 -10 14 6 15 2 8 -23 -5 -17 -5
-29 1 -29 5 0 9 5 9 11 0 5 5 7 11 3 7 -4 2 -13 -15 -23 -26 -16 -34 -31 -16
-31 17 0 11 -38 -7 -45 -16 -6 -15 -8 7 -20 25 -14 25 -14 3 -15 -13 0 -23 -5
-23 -11 0 -5 5 -7 10 -4 6 3 10 2 10 -3 0 -6 -7 -12 -15 -16 -8 -3 -15 -12
-15 -21 0 -9 7 -18 15 -21 8 -4 15 -10 15 -15 0 -5 -7 -9 -15 -9 -8 0 -15 -9
-15 -20 0 -11 0 -23 -1 -27 0 -5 10 -11 23 -15 13 -3 17 -6 9 -7 -7 -1 -11 -7
-7 -16 3 -8 -2 -21 -10 -30 -9 -9 -13 -22 -10 -30 3 -8 1 -15 -5 -15 -6 0 -18
-8 -27 -17 -12 -12 -13 -18 -4 -21 7 -2 9 -8 6 -14 -3 -5 2 -8 11 -6 13 2 19
-4 20 -19 1 -13 -4 -23 -11 -23 -22 0 -28 -40 -8 -54 9 -7 14 -18 10 -24 -4
-7 -1 -12 8 -12 9 0 16 -5 16 -11 0 -6 -5 -9 -12 -7 -7 3 -23 -11 -36 -31 -16
-23 -20 -37 -13 -39 9 -3 7 -11 -4 -28 -8 -13 -11 -24 -5 -24 5 0 10 -9 10
-19 0 -11 10 -27 23 -36 22 -17 22 -17 -10 -13 -37 5 -37 5 -23 -23 9 -15 7
-21 -5 -25 -23 -9 -18 -25 8 -21 12 2 17 2 11 0 -15 -5 -5 -45 15 -60 14 -10
13 -14 -7 -31 l-22 -19 22 -15 22 -15 -22 -5 c-15 -4 -20 -2 -16 5 5 8 3 8 -6
0 -11 -10 -11 -25 2 -83 13 -59 13 -70 2 -70 -8 0 -14 -4 -14 -10 0 -5 6 -10
14 -10 24 0 6 -40 -23 -52 l-26 -11 24 -6 c46 -12 56 -71 12 -71 -11 0 -23 -6
-27 -12 -4 -7 -4 -10 1 -6 10 9 35 -36 35 -62 0 -10 -5 -20 -11 -22 -8 -3 -7
-9 3 -19 15 -14 31 -62 26 -76 -2 -5 -10 -8 -18 -8 -10 0 -14 -8 -12 -28 3
-22 0 -26 -14 -20 -12 4 -15 3 -10 -5 4 -7 21 -12 37 -12 19 0 28 -4 24 -11
-4 -6 -14 -8 -22 -5 -9 4 -13 1 -11 -6 6 -16 -22 -48 -42 -48 -12 -1 -11 -3 3
-11 9 -6 27 -7 40 -3 20 6 19 4 -6 -18 l-27 -24 35 -13 c39 -14 49 -35 12 -26
-18 5 -23 2 -23 -14 0 -11 3 -18 7 -15 4 2 13 -3 20 -12 11 -14 10 -18 -5 -29
-14 -11 -15 -17 -7 -34 15 -27 14 -30 -9 -24 -11 3 -20 1 -20 -4 0 -5 9 -15
20 -23 11 -8 20 -21 20 -29 0 -11 -3 -11 -13 3 -12 16 -14 17 -27 1 -10 -12
-10 -19 -2 -27 7 -7 12 -20 12 -30 0 -10 7 -18 15 -18 30 0 10 -44 -25 -56
-19 -6 -36 -17 -38 -23 -3 -9 2 -9 17 1 18 11 23 11 30 -1 6 -8 5 -24 0 -38
-6 -18 -5 -25 5 -29 12 -4 11 -9 -5 -25 -21 -21 -25 -39 -8 -39 6 0 9 -7 5
-15 -3 -8 -1 -15 4 -15 5 0 6 -8 3 -17 -5 -12 -2 -15 8 -11 19 7 44 -28 27
-38 -6 -4 -20 -7 -31 -8 -14 -1 -21 -9 -22 -25 -2 -19 0 -21 9 -10 12 15 56
14 56 -2 0 -5 -9 -9 -20 -9 -17 0 -20 -6 -17 -35 1 -24 7 -35 18 -35 10 0 15
-11 16 -36 1 -20 6 -41 11 -46 6 -6 8 -17 5 -24 -3 -8 2 -26 12 -40 16 -24 16
-26 -2 -40 -10 -7 -22 -14 -27 -14 -4 0 -5 -8 -2 -17 4 -9 1 -20 -6 -25 -10
-6 -8 -13 9 -27 20 -16 20 -21 8 -45 -12 -22 -12 -26 1 -26 8 0 14 -5 14 -11
0 -5 3 -8 8 -5 4 2 12 -6 18 -19 9 -19 9 -22 -2 -18 -10 4 -12 0 -8 -10 4 -12
14 -15 37 -10 30 5 31 5 12 -10 -11 -8 -24 -13 -28 -10 -5 3 -7 -3 -5 -13 2
-11 13 -20 26 -22 12 -2 22 -10 22 -18 0 -8 5 -14 10 -14 6 0 10 -4 10 -10 0
-5 -7 -10 -15 -10 -9 0 -18 -7 -21 -15 -4 -8 -11 -12 -16 -9 -6 4 -9 1 -6 -6
2 -7 12 -14 23 -16 10 -1 21 -8 25 -14 4 -7 11 -10 16 -8 5 1 10 -8 11 -22 1
-14 0 -18 -3 -7 -9 28 -24 20 -24 -13 0 -17 -5 -30 -12 -30 -9 -1 -8 -5 3 -13
23 -17 41 -56 35 -73 -7 -17 15 -18 33 -1 11 10 12 9 6 -2 -4 -8 -2 -17 6 -22
11 -7 10 -9 -3 -9 -24 0 -23 -12 2 -28 21 -13 26 -37 11 -47 -5 -3 -13 0 -17
6 -4 8 -3 9 4 5 7 -4 12 -2 12 3 0 6 -7 11 -15 11 -29 0 -16 -38 16 -49 21 -7
29 -16 27 -28 -2 -11 -11 -17 -21 -15 -9 2 -17 -2 -17 -8 0 -6 5 -8 10 -5 6 3
10 1 10 -4 0 -6 7 -11 16 -11 11 0 14 -6 9 -22 -4 -15 -3 -19 3 -10 11 16 42
5 42 -14 0 -8 6 -14 13 -14 8 0 8 -3 -2 -9 -12 -8 -12 -11 0 -24 8 -7 23 -19
35 -25 12 -6 21 -22 22 -41 2 -29 -12 -44 -20 -20 -2 6 -15 9 -28 7 -21 -4
-17 -7 22 -18 26 -8 50 -20 52 -26 3 -8 -1 -11 -12 -8 -14 5 -14 4 1 -6 14 -9
16 -15 6 -26 -7 -9 -8 -14 -1 -14 6 0 14 5 17 10 3 6 14 10 23 10 12 0 9 -6
-10 -18 -29 -17 -39 -38 -14 -29 10 4 13 1 10 -7 -4 -10 4 -12 32 -9 34 3 36
2 32 -20 -4 -20 -1 -23 14 -19 10 2 18 -1 18 -7 0 -6 -7 -11 -15 -11 -13 0
-13 -2 -3 -14 7 -7 19 -11 25 -9 7 3 13 -2 13 -10 0 -8 -9 -17 -20 -20 -11 -3
-20 -11 -19 -19 0 -10 2 -10 6 0 2 6 12 12 20 12 9 0 13 -6 9 -15 -3 -9 3 -19
15 -26 33 -17 59 -42 59 -56 0 -7 5 -13 11 -13 6 0 8 -9 4 -20 -4 -11 -2 -21
4 -21 6 -1 15 -2 19 -3 10 -1 42 -32 42 -40 0 -2 -6 -6 -12 -9 -7 -2 -5 -3 5
-1 9 1 23 -3 30 -10 6 -7 20 -15 30 -19 9 -3 17 -15 17 -26 0 -14 5 -18 20
-14 12 3 20 0 20 -6 0 -7 -4 -9 -10 -6 -5 3 -10 2 -10 -4 0 -5 7 -14 16 -19 9
-5 16 -13 17 -18 1 -17 25 -35 32 -24 7 11 64 -41 58 -52 -2 -5 4 -8 14 -8 11
0 25 -6 32 -13 11 -10 12 -9 6 1 -6 11 -3 11 14 0 12 -7 21 -16 21 -21 0 -4 5
-5 10 -2 6 3 10 -1 10 -9 0 -9 7 -16 16 -16 8 0 12 -4 9 -10 -4 -6 6 -11 22
-11 16 -1 21 -3 11 -6 -15 -4 -14 -7 8 -30 14 -14 31 -22 39 -19 8 3 15 1 15
-5 0 -6 9 -8 19 -4 11 3 22 1 26 -5 3 -5 -2 -10 -12 -10 -20 0 -43 -18 -43
-33 0 -5 7 -7 15 -3 8 3 15 1 15 -5 0 -6 7 -4 15 5 14 13 20 12 60 -15 25 -17
45 -35 45 -41 0 -5 7 -8 15 -4 8 3 15 2 15 -3 0 -8 34 -17 77 -23 7 -1 17 -14
22 -30 6 -15 15 -28 21 -28 6 0 8 4 5 10 -3 6 1 7 9 4 9 -3 16 -13 16 -21 0
-9 6 -13 15 -9 8 3 15 1 15 -4 0 -6 3 -9 8 -7 4 1 17 -8 30 -21 26 -26 43 -22
35 9 -6 20 -5 20 23 6 31 -16 80 -54 54 -41 -11 5 -12 4 -4 -5 6 -6 28 -13 50
-16 21 -2 41 -5 44 -6 3 -1 8 -1 13 0 4 0 7 -6 7 -15 0 -12 6 -15 25 -10 14 4
25 2 25 -3 0 -6 7 -8 15 -5 11 4 15 -1 15 -17 0 -18 2 -21 9 -10 8 12 12 13
25 1 14 -11 16 -10 10 4 -8 21 -2 20 24 -3 12 -10 22 -25 22 -34 0 -9 5 -19
10 -22 6 -4 8 -11 5 -16 -3 -5 1 -6 11 -2 14 5 15 7 1 15 -21 11 -12 34 13 34
10 0 17 -3 15 -6 -2 -3 0 -12 5 -19 10 -17 33 -4 26 14 -4 11 1 11 25 3 16 -5
29 -14 29 -18 0 -4 9 -6 20 -3 12 3 20 0 20 -6 0 -7 5 -9 10 -6 6 4 16 2 23
-4 8 -6 18 -6 27 -1 10 6 21 3 33 -8 11 -9 20 -16 21 -14 0 2 14 -2 31 -8 21
-8 31 -8 33 -1 6 17 22 13 22 -5 0 -11 5 -14 16 -10 9 3 19 6 24 6 5 0 16 7
24 16 15 14 16 14 16 0 0 -9 -4 -16 -10 -16 -5 0 -10 -4 -10 -10 0 -18 22 -10
27 10 3 11 9 20 12 20 16 0 20 -14 10 -32 -9 -16 -8 -19 3 -16 7 3 13 14 13
26 1 23 7 27 28 18 9 -5 9 -7 0 -12 -18 -8 -16 -27 2 -20 8 3 21 -1 28 -9 8
-8 24 -11 36 -8 11 3 28 0 36 -7 12 -10 15 -10 15 3 0 9 5 19 11 23 13 8 30
-16 22 -31 -4 -5 3 -2 14 7 21 20 38 24 28 8 -3 -5 -2 -10 4 -10 5 0 12 8 14
17 3 11 5 7 6 -10 1 -25 3 -27 23 -16 17 9 23 9 26 0 2 -6 8 -9 12 -6 5 3 7
12 4 20 -4 8 -11 12 -17 8 -6 -3 -7 -1 -3 5 11 18 24 14 37 -9 9 -17 8 -24 -2
-31 -11 -7 -9 -8 4 -4 10 3 21 6 23 6 3 0 3 4 0 9 -3 5 1 12 10 15 10 4 13 2
8 -6 -5 -8 -2 -9 10 -5 9 4 26 1 38 -6 16 -9 22 -9 25 1 3 6 10 9 16 5 6 -4 8
0 4 10 -4 11 -2 14 8 11 7 -3 16 -13 20 -22 5 -14 7 -14 15 -2 9 13 10 13 10
0 0 -18 48 -23 65 -7 6 7 14 21 19 32 5 15 9 16 15 6 5 -8 14 -10 21 -6 8 5
11 4 7 -2 -4 -6 3 -19 15 -29 12 -11 18 -13 14 -7 -5 9 2 13 23 13 17 0 31 -5
31 -10 0 -7 6 -7 20 0 18 10 24 7 21 -12 0 -5 4 -8 9 -8 6 0 10 4 10 10 0 5 6
8 13 6 6 -1 9 -1 5 1 -16 9 -8 35 8 29 9 -3 18 -6 20 -6 2 0 4 -10 4 -22 1
-20 2 -21 11 -6 10 18 51 19 112 3 23 -6 26 -4 21 9 -9 24 22 20 39 -4 13 -18
16 -19 27 -5 16 20 30 19 30 -2 0 -9 3 -13 7 -10 3 4 12 2 20 -4 10 -9 18 -8
31 3 19 18 54 17 74 0 11 -8 17 -9 26 0 8 8 15 6 27 -6 9 -9 22 -13 28 -9 8 5
8 8 -1 11 -26 8 -11 28 22 28 19 0 32 -4 30 -8 -3 -4 0 -8 6 -8 7 0 14 9 17
20 3 11 9 20 14 20 5 0 6 -7 3 -15 -4 -9 0 -15 9 -15 8 0 17 -6 20 -12 2 -7 8
-9 13 -5 4 4 3 17 -4 27 -14 24 -7 26 14 5 9 -8 12 -19 9 -25 -3 -5 -2 -10 4
-10 5 0 11 6 14 13 3 8 10 7 26 -7 12 -11 21 -14 21 -7 0 7 9 9 26 5 24 -6 25
-5 15 14 -10 19 -9 21 6 15 10 -3 23 -12 30 -20 9 -12 12 -11 18 6 8 27 22 27
30 1 4 -11 10 -18 15 -15 5 3 13 -3 19 -12 10 -17 10 -17 12 2 1 11 1 27 0 35
-1 12 1 11 12 -2 8 -10 17 -15 20 -11 13 12 7 -13 -5 -26 -11 -11 -10 -12 2
-6 28 17 49 39 44 47 -4 7 35 4 44 -3 7 -6 29 -4 40 4 7 6 17 5 25 -2 8 -6 31
-13 53 -17 21 -3 43 -9 48 -12 5 -3 6 3 2 14 -5 15 -4 16 5 7 6 -6 17 -10 23
-9 6 2 8 1 4 -1 -14 -8 -9 -23 7 -23 8 0 15 6 15 13 0 7 9 13 20 13 11 0 20
-6 20 -13 0 -7 6 -13 14 -13 10 0 12 7 9 23 -5 18 -3 20 7 10 9 -8 19 -9 31
-2 15 7 17 6 13 -6 -5 -13 -2 -14 21 -5 29 11 65 5 65 -11 0 -5 5 -9 10 -9 6
0 9 3 9 8 -1 4 -1 15 0 26 1 15 4 16 16 6 9 -7 13 -21 10 -30 -3 -9 2 -23 11
-31 14 -11 16 -10 13 11 -5 37 8 52 32 40 10 -6 19 -8 19 -4 0 4 12 -3 26 -17
24 -22 26 -22 16 -3 -13 25 -5 39 14 23 15 -12 44 -5 44 10 0 5 -8 12 -17 14
-17 4 -17 5 -1 6 10 0 32 -12 51 -29 26 -22 37 -26 45 -18 17 17 15 33 -3 18
-12 -10 -15 -10 -15 2 0 17 29 20 47 6 7 -6 10 -14 7 -19 -3 -5 0 -9 5 -9 6 0
11 5 11 11 0 6 9 8 21 4 14 -5 19 -4 15 4 -4 7 -1 9 8 5 8 -3 17 -12 20 -20 3
-8 10 -14 16 -14 6 0 8 4 5 10 -8 13 25 1 46 -17 14 -12 17 -11 22 7 4 14 10
18 23 13 9 -3 15 -2 12 3 -3 5 -2 18 3 29 7 17 8 16 8 -8 1 -32 24 -45 46 -27
11 9 15 9 15 1 0 -7 5 -9 10 -6 6 4 8 10 5 15 -3 4 3 11 13 15 11 4 24 -2 39
-20 21 -24 23 -24 23 -6 0 11 5 23 10 26 6 3 10 2 10 -4 0 -5 9 -13 20 -16 11
-3 20 -15 20 -26 0 -10 5 -19 10 -19 6 0 8 11 4 26 -6 25 -5 26 18 21 20 -5
25 -3 24 10 0 8 6 18 14 20 13 4 13 3 0 -7 -12 -8 -6 -10 23 -5 32 4 38 2 36
-12 -2 -29 0 -43 10 -43 4 0 6 12 3 27 -4 23 -2 25 17 20 11 -3 21 -1 21 4 0
5 -5 9 -12 9 -6 0 -9 3 -5 6 3 4 18 -3 33 -15 15 -11 37 -21 50 -21 12 0 26
-4 29 -10 10 -16 23 -11 31 12 5 18 8 19 15 6 6 -12 19 -14 45 -11 24 3 39 0
45 -9 6 -9 9 -7 9 10 0 15 6 22 20 22 12 0 20 -6 19 -12 -3 -25 1 -41 9 -34 4
4 7 13 7 19 1 7 7 11 14 9 8 -2 11 3 8 12 -7 18 11 17 31 -2 8 -7 19 -11 26
-9 6 2 16 -5 23 -17 l12 -21 1 22 c0 28 17 38 35 23 11 -9 15 -9 15 -1 0 6 9
2 20 -9 11 -11 24 -20 29 -20 21 0 61 20 61 31 0 8 -4 8 -15 -1 -13 -11 -14
-10 -9 4 3 9 10 16 16 16 5 0 6 5 2 12 -4 7 -3 8 5 4 6 -4 9 -12 6 -17 -4 -5
-3 -9 2 -10 4 0 26 -2 48 -4 56 -4 68 -8 82 -25 15 -18 16 -14 3 29 l-9 33 36
-37 c25 -26 38 -34 41 -24 11 40 11 41 26 27 7 -7 12 -17 10 -23 -2 -5 6 -10
19 -10 19 0 23 5 21 23 -1 12 2 22 8 22 6 0 8 -6 5 -14 -3 -8 1 -20 9 -26 14
-12 18 -3 17 38 -1 6 3 12 8 12 5 0 9 -9 9 -19 0 -18 27 -37 38 -26 3 3 0 5
-6 5 -7 0 -12 4 -12 9 0 4 11 6 25 3 14 -2 32 1 40 8 12 10 15 9 15 -4 0 -9
-5 -16 -12 -16 -6 0 -9 -3 -6 -6 4 -3 15 -1 26 5 24 13 85 3 79 -13 -3 -6 1
-17 9 -23 10 -10 12 -7 11 15 -2 24 1 27 28 24 16 -2 33 -9 37 -15 6 -9 10 -8
17 2 8 13 12 13 27 0 9 -8 18 -13 18 -11 1 2 9 0 20 -4 10 -4 21 -2 25 4 4 7
17 1 34 -18 23 -24 32 -28 52 -20 17 6 27 5 35 -5 8 -10 18 -12 29 -6 9 5 23
6 31 3 18 -6 41 -28 35 -34 -2 -2 5 -4 15 -4 11 0 20 4 20 8 0 4 7 8 16 8 8 0
12 5 9 10 -3 6 5 10 19 10 27 0 43 -15 26 -25 -5 -3 -10 -14 -10 -23 0 -11 3
-13 8 -6 9 15 56 26 76 18 9 -3 16 -13 16 -20 0 -8 7 -17 15 -20 8 -4 15 -12
15 -20 0 -8 6 -11 16 -7 16 6 16 7 0 18 -9 7 -16 16 -16 21 0 6 -14 18 -30 28
-18 10 -27 22 -23 29 4 7 12 3 21 -11 8 -12 19 -22 25 -22 6 0 19 -7 29 -17
17 -15 18 -15 19 13 1 18 3 22 6 11 3 -10 16 -22 29 -27 24 -9 33 -30 14 -30
-5 0 -10 5 -10 11 0 5 -5 7 -11 4 -7 -5 -4 -14 7 -27 16 -17 20 -18 30 -4 15
21 21 20 27 -4 3 -13 10 -18 21 -14 10 4 16 1 16 -9 0 -11 6 -13 22 -9 17 4
20 2 15 -12 -5 -13 -2 -17 11 -15 26 3 73 -12 66 -22 -3 -5 2 -6 10 -3 11 4
16 0 16 -15 0 -14 6 -21 19 -21 14 0 18 5 14 20 -9 33 7 23 23 -15 8 -20 19
-33 24 -30 6 3 10 1 10 -4 0 -6 4 -11 10 -11 5 0 6 7 3 17 -4 10 -2 14 5 9 6
-3 13 -2 17 4 8 13 25 13 25 0 0 -5 -7 -10 -16 -10 -9 0 -14 -6 -12 -12 6 -18
45 -22 51 -6 2 7 3 4 1 -7 -2 -15 3 -21 16 -22 11 -1 20 3 20 10 0 6 9 1 21
-12 20 -22 20 -23 3 -36 -11 -7 -16 -17 -12 -21 4 -4 15 -1 25 7 15 12 16 12
9 -5 -7 -19 -6 -19 13 -2 23 21 56 14 48 -9 -4 -8 2 -16 14 -20 10 -4 19 -10
19 -15 0 -4 12 -15 26 -25 15 -9 24 -12 20 -7 -3 6 -2 13 3 17 12 7 34 -31 27
-44 -3 -5 3 -11 14 -14 14 -4 20 0 20 11 0 12 3 13 12 4 7 -7 20 -12 30 -12
15 0 17 -4 10 -17 -7 -11 -6 -21 3 -30 20 -20 28 -16 21 12 -4 14 -2 25 4 25
9 0 11 -6 10 -25 -1 -17 38 -39 71 -40 22 0 39 -5 40 -10 1 -17 30 -44 42 -39
7 2 21 -9 32 -25 10 -16 24 -27 29 -23 26 16 47 8 53 -20 4 -22 8 -26 19 -17
18 15 54 2 54 -21 0 -21 29 -33 93 -39 9 0 16 -4 16 -8 -3 -20 3 -23 23 -12
18 10 20 9 15 -5 -4 -9 -2 -16 3 -16 5 0 11 8 13 18 3 9 5 -2 6 -25 1 -39 3
-43 27 -43 14 0 23 4 19 10 -3 5 -12 7 -20 3 -9 -3 -15 1 -15 11 0 11 8 15 25
14 23 -2 32 -19 26 -51 -1 -5 3 -6 8 -3 5 3 20 -3 33 -14 27 -21 40 -18 31 8
-4 10 -2 13 5 8 7 -4 12 -16 12 -26 0 -10 5 -22 11 -26 8 -4 9 3 4 25 -4 20
-3 31 4 31 6 0 11 -6 11 -12 0 -7 19 -30 43 -51 33 -31 37 -38 20 -34 -29 6
-30 -9 -2 -23 15 -9 24 -8 35 1 13 10 12 15 -1 36 -15 22 -13 43 4 43 4 0 13
-11 19 -25 15 -32 15 -38 1 -29 -8 4 -7 0 1 -15 14 -28 34 -16 26 15 -4 13 -2
24 3 24 6 0 13 -16 17 -35 7 -41 23 -55 36 -31 11 20 32 21 24 1 -4 -10 1 -15
14 -15 25 0 25 -9 3 -26 -16 -12 -15 -13 10 -14 15 0 27 -4 27 -9 0 -5 7 -11
15 -14 11 -5 12 -1 6 16 -6 15 -4 26 7 36 14 13 15 12 9 -8 -3 -15 0 -29 9
-38 12 -13 14 -12 14 6 0 12 5 21 11 21 5 0 7 -5 3 -11 -4 -8 1 -9 16 -4 20 6
22 5 16 -18 -4 -19 -1 -26 14 -30 17 -4 19 -1 14 20 -6 22 -4 24 12 15 11 -5
25 -7 32 -5 7 3 20 1 30 -3 9 -4 19 -8 22 -8 17 -5 50 -33 50 -43 0 -6 5 -15
11 -19 8 -4 9 0 4 15 -5 18 -3 21 20 19 14 -1 31 -8 37 -15 19 -23 31 -14 14
12 -12 18 -13 23 -3 19 18 -7 41 22 33 41 -3 8 -1 15 4 15 6 0 11 -7 11 -15 1
-8 2 -21 3 -27 0 -7 12 -15 26 -16 21 -3 22 -2 11 12 -12 14 -11 16 8 16 11 0
21 4 21 8 0 17 33 8 38 -10 4 -17 6 -17 16 -2 10 14 13 12 26 -10 7 -14 18
-26 23 -26 5 0 4 7 -3 15 -6 8 -9 19 -5 25 4 6 1 19 -7 28 -12 15 -11 16 5 3
9 -7 17 -12 18 -10 0 2 2 12 4 22 5 24 25 48 36 41 5 -3 9 0 9 5 0 11 35 10
46 -2 13 -12 26 -7 21 7 -3 8 1 17 8 20 9 3 12 12 8 22 -5 14 -2 16 15 12 27
-8 35 15 22 62 -13 44 -13 43 6 36 12 -4 15 -2 10 9 -3 8 -1 15 4 15 9 0 25
-20 25 -32 0 -9 11 -11 27 -6 8 3 8 10 -1 26 -9 18 -9 21 3 16 21 -8 29 13 8
21 -9 5 -21 9 -27 10 -5 2 -36 13 -67 25 -32 12 -63 18 -69 14 -7 -4 -9 -3 -6
3 4 6 -10 19 -31 30 -55 28 -184 104 -206 122 -14 12 -20 13 -23 4 -3 -7 -12
-13 -20 -13 -12 0 -13 3 -4 14 9 10 6 17 -13 30 -14 9 -30 16 -36 16 -5 0 -10
4 -10 8 0 5 -17 16 -37 26 -36 17 -71 39 -213 131 -36 24 -121 75 -190 115
-132 77 -243 149 -248 162 -2 5 -9 8 -16 8 -6 0 -42 20 -79 44 -36 24 -68 42
-70 40 -2 -2 -12 5 -22 16 -10 11 -22 20 -26 20 -4 0 -34 17 -66 38 -32 22
-79 51 -106 65 -26 15 -81 49 -121 77 -40 27 -77 50 -81 50 -4 0 -25 13 -48
29 -23 15 -99 60 -168 99 -250 140 -309 152 -794 158 -527 6 -679 7 -690 4 -5
-1 -12 -1 -15 0 -8 4 -1091 11 -1450 10 -184 -1 -348 -1 -365 0 -16 0 -228 2
-470 4 -242 2 -519 7 -615 10 -96 3 -276 8 -400 12 -148 4 -263 12 -335 25
-116 19 -330 65 -355 75 -8 3 -40 12 -70 20 -151 40 -568 230 -645 294 -9 7
-18 10 -21 7 -3 -3 -13 2 -23 11 -43 42 -86 71 -112 77 -15 4 -29 13 -31 21
-2 8 -33 38 -70 67 -127 99 -163 132 -253 227 -49 52 -98 98 -107 102 -9 4
-22 17 -29 30 -12 23 -11 23 16 -2 l28 -25 -19 27 c-10 15 -23 28 -27 28 -36
1 -268 344 -378 557 -43 86 -79 161 -79 167 0 6 -12 38 -26 71 -58 137 -134
418 -154 570 -31 240 -37 343 -42 727 -2 117 -7 188 -13 188 -6 0 -6 3 0 8 7
4 11 122 11 333 1 286 7 530 19 734 2 33 6 139 10 235 4 96 9 186 11 200 2 14
8 84 13 155 5 72 14 177 19 235 6 58 10 114 10 125 0 11 3 38 6 60 4 22 9 60
11 85 2 25 6 61 9 80 17 136 18 153 7 146 -6 -4 -11 -2 -11 3 0 11 -11 12 -42
4z m38 -44 c4 -7 1 -10 -7 -7 -8 3 -20 -2 -28 -10 -12 -11 -16 -12 -19 -2 -8
23 40 40 54 19z m-171 -349 c3 -5 -1 -10 -9 -10 -9 0 -16 5 -16 10 0 6 4 10 9
10 6 0 13 -4 16 -10z m-255 -1170 c0 -5 -8 -10 -17 -10 -15 0 -16 2 -3 10 19
12 20 12 20 0z m-47 -395 c4 -8 2 -17 -3 -20 -6 -4 -10 3 -10 14 0 25 6 27 13
6z m-38 -385 c3 -5 1 -10 -4 -10 -6 0 -11 5 -11 10 0 6 2 10 4 10 3 0 8 -4 11
-10z m50 -1649 c3 -5 1 -12 -4 -15 -5 -3 -11 1 -15 9 -6 16 9 21 19 6z m122
-463 c-3 -8 -6 -5 -6 6 -1 11 2 17 5 13 3 -3 4 -12 1 -19z m386 -689 c-6 -6
-19 -9 -29 -6 -17 3 -16 5 6 14 28 12 39 8 23 -8z m82 -59 c3 -5 -1 -10 -9
-10 -9 0 -16 5 -16 10 0 6 4 10 9 10 6 0 13 -4 16 -10z m818 -654 c4 -10 1
-13 -9 -9 -7 3 -14 9 -14 14 0 14 17 10 23 -5z m1018 -290 c-6 -7 -9 -16 -6
-20 3 -3 0 -2 -5 2 -13 11 -2 44 12 36 5 -4 5 -11 -1 -18z m57 -12 c-10 -10
-28 6 -28 24 0 15 1 15 17 -1 9 -9 14 -19 11 -23z m902 -35 c0 -5 -4 -9 -10
-9 -5 0 -10 7 -10 16 0 8 5 12 10 9 6 -3 10 -10 10 -16z m100 1 c0 -5 -4 -10
-10 -10 -5 0 -10 5 -10 10 0 6 5 10 10 10 6 0 10 -4 10 -10z m2550 0 c0 -5 -2
-10 -4 -10 -3 0 -8 5 -11 10 -3 6 -1 10 4 10 6 0 11 -4 11 -10z m-870 -4 c0
-9 -30 -14 -35 -6 -4 6 3 10 14 10 12 0 21 -2 21 -4z m1717 -58 c-3 -8 -6 -5
-6 6 -1 11 2 17 5 13 3 -3 4 -12 1 -19z m60 -14 c-3 -3 -12 -4 -19 -1 -8 3 -5
6 6 6 11 1 17 -2 13 -5z m83 -29 c0 -8 -2 -15 -4 -15 -2 0 -6 7 -10 15 -3 8
-1 15 4 15 6 0 10 -7 10 -15z m805 -315 c3 -5 1 -10 -4 -10 -6 0 -11 5 -11 10
0 6 2 10 4 10 3 0 8 -4 11 -10z m113 -69 c3 -8 -1 -12 -9 -9 -7 2 -15 10 -17
17 -3 8 1 12 9 9 7 -2 15 -10 17 -17z m1912 -371 c8 -5 12 -11 9 -14 -3 -3
-14 1 -25 9 -21 16 -8 20 16 5z m-510 -316 c0 -8 -4 -12 -10 -9 -5 3 -10 10
-10 16 0 5 5 9 10 9 6 0 10 -7 10 -16z"/>
<path d="M4876 9403 c-6 -14 -5 -15 5 -6 7 7 10 15 7 18 -3 3 -9 -2 -12 -12z"/>
<path d="M4915 9410 c-3 -5 -1 -10 4 -10 6 0 11 5 11 10 0 6 -2 10 -4 10 -3 0
-8 -4 -11 -10z"/>
<path d="M4630 8649 c0 -5 5 -7 10 -4 6 3 10 8 10 11 0 2 -4 4 -10 4 -5 0 -10
-5 -10 -11z"/>
<path d="M15145 7220 c-3 -5 -1 -10 4 -10 6 0 11 5 11 10 0 6 -2 10 -4 10 -3
0 -8 -4 -11 -10z"/>
<path d="M4470 6740 c0 -6 7 -13 15 -17 24 -9 27 1 5 15 -13 8 -20 8 -20 2z"/>
<path d="M4470 6700 c8 -5 20 -10 25 -10 6 0 3 5 -5 10 -8 5 -19 10 -25 10 -5
0 -3 -5 5 -10z"/>
<path d="M4455 6590 c-19 -8 -19 -9 3 -9 12 -1 22 4 22 9 0 6 -1 10 -2 9 -2 0
-12 -4 -23 -9z"/>
<path d="M4510 5660 c18 -12 30 -13 30 -2 0 4 -10 9 -22 9 -18 2 -20 0 -8 -7z"/>
<path d="M4510 5630 c0 -5 5 -10 10 -10 6 0 10 5 10 10 0 6 -4 10 -10 10 -5 0
-10 -4 -10 -10z"/>
<path d="M4616 5271 c-4 -6 -13 -8 -20 -5 -8 3 -17 0 -22 -7 -4 -8 -3 -10 4
-5 7 4 12 1 12 -8 0 -13 4 -12 21 5 11 11 18 23 16 25 -3 3 -8 1 -11 -5z"/>
<path d="M4615 5140 c-3 -5 -1 -10 4 -10 6 0 11 5 11 10 0 6 -2 10 -4 10 -3 0
-8 -4 -11 -10z"/>
<path d="M5235 4040 c-3 -5 1 -10 9 -10 9 0 16 5 16 10 0 6 -4 10 -9 10 -6 0
-13 -4 -16 -10z"/>
<path d="M5426 3922 c-3 -6 3 -12 15 -15 12 -3 19 -1 16 6 -5 15 -24 20 -31 9z"/>
<path d="M6080 3559 c0 -5 5 -7 10 -4 6 3 10 8 10 11 0 2 -4 4 -10 4 -5 0 -10
-5 -10 -11z"/>
<path d="M6310 3440 c0 -5 5 -10 11 -10 5 0 7 5 4 10 -3 6 -8 10 -11 10 -2 0
-4 -4 -4 -10z"/>
<path d="M8260 3269 c0 -5 5 -7 10 -4 6 3 10 8 10 11 0 2 -4 4 -10 4 -5 0 -10
-5 -10 -11z"/>
<path d="M11135 3260 c-3 -5 -1 -10 4 -10 6 0 11 5 11 10 0 6 -2 10 -4 10 -3
0 -8 -4 -11 -10z"/>
<path d="M11225 3260 c-3 -5 -1 -10 4 -10 6 0 11 5 11 10 0 6 -2 10 -4 10 -3
0 -8 -4 -11 -10z"/>
<path d="M9515 3240 c3 -5 8 -10 11 -10 2 0 4 5 4 10 0 6 -5 10 -11 10 -5 0
-7 -4 -4 -10z"/>
<path d="M11330 3230 c0 -5 5 -10 11 -10 5 0 7 5 4 10 -3 6 -8 10 -11 10 -2 0
-4 -4 -4 -10z"/>
<path d="M12276 2872 c-7 -12 22 -38 31 -28 4 3 0 14 -9 22 -9 10 -18 12 -22
6z"/>
<path d="M12720 2640 c0 -5 5 -10 10 -10 6 0 10 5 10 10 0 6 -4 10 -10 10 -5
0 -10 -4 -10 -10z"/>
<path d="M12762 2610 c0 -14 2 -19 5 -12 2 6 2 18 0 25 -3 6 -5 1 -5 -13z"/>
<path d="M13095 2420 c3 -5 8 -10 11 -10 2 0 4 5 4 10 0 6 -5 10 -11 10 -5 0
-7 -4 -4 -10z"/>
<path d="M13536 2193 c5 -5 12 -12 16 -18 4 -6 8 -2 8 8 0 9 -7 17 -17 17 -9
0 -12 -3 -7 -7z"/>
</g>
</svg>
